#!OML:ASF H:\Martial Arts Walks\Project 1\Capture day 1\Session 1\male.ASF
:FULLY-SPECIFIED
:DEGREES
741
root -1.1781 13.9027 4.48426 13.9037 -21.5064 -14.8296
lowerback 8.99136 4.07055 7.86633
upperback -2.51881 6.54193 2.41728
thorax -7.13287 2.90331 -2.77882
lowerneck -2.7155 0.134168 -2.54533
upperneck 4.69269 0.0741356 4.46324
head 1.94761 0.0957502 1.8618
rclavicle 4.97459e-014 2.22639e-014
rhumerus -44.79 24.278 -83.4036
rradius 96.2005
rwrist 9.39574
rhand -16.481 -36.2599
rfingers 7.12502
rthumb 9.73611 -66.0148
lclavicle 4.97459e-014 2.22639e-014
lhumerus -10.5603 -12.4358 77.1781
lradius 94.6591
lwrist 27.566
lhand -31.3838 23.6406
lfingers 7.12502
lthumb -4.65376 53.5695
rfemur 5.54993 -6.43178 18.777
rtibia 40.2069
rfoot -31.2056 -30.8601
rtoes -36.9186
lfemur -69.8713 23.4119 -6.88532
ltibia 76.3653
lfoot -12.0073 0.531239
ltoes 5.38969
742
root -1.17451 13.9027 4.51059 13.8995 -21.4806 -14.589
lowerback 9.06653 4.09487 7.64365
upperback -2.56692 6.55473 2.33399
thorax -7.23944 2.91201 -2.75588
lowerneck -2.51695 0.10055 -2.64404
upperneck 4.54604 0.0334134 4.49507
head 1.8666 0.0714365 1.88561
rclavicle 6.36111e-015 -1.27222e-014
rhumerus -44.2862 24.6649 -83.3602
rradius 96.1634
rwrist 9.39945
rhand -16.6417 -36.1265
rfingers 7.12502
rthumb 9.58103 -65.8887
lclavicle 6.36111e-015 -1.27222e-014
lhumerus -10.7962 -12.3598 77.0874
lradius 94.7577
lwrist 27.765
lhand -31.2632 23.4475
lfingers 7.12502
lthumb -4.53733 53.3789
rfemur 5.59776 -6.50995 18.4918
rtibia 40.1207
rfoot -31.1411 -30.8461
rtoes -36.9246
lfemur -69.914 23.2656 -7.18802
ltibia 76.4494
lfoot -12.1597 0.894965
ltoes 5.15261
743
root -1.16966 13.9049 4.53765 13.9285 -21.4685 -14.3718
lowerback 9.16438 4.09549 7.40116
upperback -2.51478 6.52672 2.24264
thorax -7.25563 2.90765 -2.72263
lowerneck -2.79788 0.0851969 -2.61137
upperneck 4.50956 0.0197231 4.44743
head 1.90522 0.0670952 1.86572
rclavicle -6.70898e-014 1.63003e-014
rhumerus -43.4708 25.1416 -83.236
rradius 96.1257
rwrist 9.44969
rhand -17.1921 -35.0199
rfingers 7.12502
rthumb 9.04999 -64.8058
lclavicle -6.70898e-014 1.63003e-014
lhumerus -10.7477 -12.2154 76.8139
lradius 94.8285
lwrist 28.0244
lhand -31.1842 23.546
lfingers 7.12502
lthumb -4.46105 53.4791
rfemur 5.61439 -6.52773 18.251
rtibia 40.0261
rfoot -31.0944 -30.8358
rtoes -36.886
lfemur -69.9906 23.144 -7.48694
ltibia 76.5254
lfoot -12.2612 1.44116
ltoes 4.70307
744
root -1.16317 13.9058 4.56863 13.933 -21.4601 -14.1611
lowerback 9.27901 4.16015 7.22551
upperback -2.56664 6.60111 2.15029
thorax -7.37758 2.94339 -2.74643
lowerneck -2.58451 0.00227415 -2.64578
upperneck 4.32699 -0.0855202 4.40379
head 1.81167 0.00981416 1.85146
rclavicle -1.78906e-015 2.50469e-014
rhumerus -42.9446 25.4339 -83.1513
rradius 96.1345
rwrist 9.474
rhand -16.9961 -35.187
rfingers 7.12502
rthumb 9.2391 -64.9645
lclavicle -1.78906e-015 2.50469e-014
lhumerus -10.9409 -12.2512 76.7093
lradius 94.9313
lwrist 28.2956
lhand -31.0531 23.2505
lfingers 7.12502
lthumb -4.33437 53.1862
rfemur 5.68322 -6.56071 17.9804
rtibia 39.899
rfoot -30.9777 -30.8381
rtoes -36.8604
lfemur -70.0083 23.0024 -7.75431
ltibia 76.6565
lfoot -12.4408 2.2406
ltoes 3.85632
745
root -1.15529 13.9073 4.60015 13.9322 -21.4451 -13.9651
lowerback 9.44468 4.17116 7.00658
upperback -2.50627 6.5955 2.07496
thorax -7.42162 2.94793 -2.71778
lowerneck -2.75751 -0.0182313 -2.72133
upperneck 4.17002 -0.103018 4.43563
head 1.7932 0.00170248 1.8746
rclavicle -3.28989e-014 -4.37326e-015
rhumerus -42.0755 25.8569 -82.9641
rradius 96.1466
rwrist 9.41914
rhand -16.7715 -35.4603
rfingers 7.12502
rthumb 9.45582 -65.2281
lclavicle -3.28989e-014 -4.37326e-015
lhumerus -10.8839 -12.1138 76.4566
lradius 94.9943
lwrist 28.5192
lhand -30.9757 23.3203
lfingers 7.12502
lthumb -4.25964 53.2574
rfemur 5.76376 -6.57974 17.7352
rtibia 39.7591
rfoot -30.6913 -30.9603
rtoes -37.0313
lfemur -70.0258 22.849 -8.01098
ltibia 76.7727
lfoot -12.6048 2.9692
ltoes 3.00835
746
root -1.14617 13.9069 4.63627 13.9861 -21.4166 -13.8215
lowerback 9.52303 4.23946 6.88266
upperback -2.52763 6.67603 2.01204
thorax -7.48783 2.98816 -2.73539
lowerneck -2.55435 -0.084603 -2.83522
upperneck 3.91789 -0.183394 4.44897
head 1.67951 -0.0433109 1.89354
rclavicle 7.7526e-015 -1.90833e-014
rhumerus -41.4668 26.1597 -82.7607
rradius 96.2585
rwrist 9.29977
rhand -16.8546 -35.3304
rfingers 7.12502
rthumb 9.37564 -65.1019
lclavicle 7.7526e-015 -1.90833e-014
lhumerus -11.0072 -12.1626 76.3259
lradius 95.1066
lwrist 28.6533
lhand -30.8353 23.0683
lfingers 7.12502
lthumb -4.12412 53.0081
rfemur 5.85876 -6.55577 17.5443
rtibia 39.5837
rfoot -30.7054 -30.8486
rtoes -36.9153
lfemur -70.101 22.7019 -8.23649
ltibia 76.935
lfoot -12.5557 3.77672
ltoes 2.15787
747
root -1.1362 13.9079 4.67359 14.0123 -21.4134 -13.6471
lowerback 9.68292 4.30291 6.6924
upperback -2.46707 6.7419 1.93515
thorax -7.51914 3.02675 -2.73328
lowerneck -2.77331 -0.17639 -2.87662
upperneck 3.77784 -0.293712 4.40318
head 1.67767 -0.0980345 1.88361
rclavicle -3.42904e-014 -3.57812e-015
rhumerus -40.5508 26.445 -82.4924
rradius 96.313
rwrist 9.11197
rhand -17.0105 -35.2078
rfingers 7.12502
rthumb 9.22519 -64.986
lclavicle -3.42904e-014 -3.57812e-015
lhumerus -10.8868 -12.1196 76.105
lradius 95.1511
lwrist 28.6668
lhand -30.8231 23.105
lfingers 7.12502
lthumb -4.11233 53.045
rfemur 5.96043 -6.53165 17.3066
rtibia 39.3801
rfoot -30.4871 -30.8402
rtoes -37.0139
lfemur -70.122 22.5551 -8.51213
ltibia 77.0768
lfoot -12.5848 4.75207
ltoes 0.905328
748
root -1.12499 13.9096 4.71492 14.084 -21.3871 -13.5083
lowerback 9.7822 4.37552 6.5419
upperback -2.45053 6.82299 1.87027
thorax -7.55938 3.0702 -2.73912
lowerneck -2.80489 -0.242577 -2.96544
upperneck 3.58664 -0.37265 4.42321
head 1.62571 -0.138734 1.90272
rclavicle 1.38155e-014 -1.35174e-014
rhumerus -39.7344 26.7092 -82.2413
rradius 96.4087
rwrist 8.9073
rhand -17.2671 -34.8107
rfingers 7.12502
rthumb 8.97762 -64.5997
lclavicle 1.38155e-014 -1.35174e-014
lhumerus -10.8753 -12.126 75.9107
lradius 95.2172
lwrist 28.5086
lhand -30.6644 23.083
lfingers 7.12502
lthumb -3.95907 53.026
rfemur 6.06669 -6.50755 17.1058
rtibia 39.1308
rfoot -30.2779 -30.8128
rtoes -37.0892
lfemur -70.1746 22.3911 -8.74293
ltibia 77.2333
lfoot -12.624 5.68263
ltoes 0.0874891
